<?xml version="1.0" encoding="UTF-8" standalone="no"?><!DOCTYPE svg PUBLIC "-//W3C//DTD SVG 1.1//EN" "http://www.w3.org/Graphics/SVG/1.1/DTD/svg11.dtd"><svg width="100%" height="100%" viewBox="0 0 100 125" version="1.1" xmlns="http://www.w3.org/2000/svg" xmlns:xlink="http://www.w3.org/1999/xlink" xml:space="preserve" style="fill-rule:evenodd;clip-rule:evenodd;stroke-linejoin:round;stroke-miterlimit:1.41421;"><g><g><path d="M89.5,21.5l-0.283,0c-0.895,-3.44 -4,-6 -7.717,-6l-26,0c-2.387,0 -4.533,1.051 -6,2.714c-1.467,-1.663 -3.613,-2.714 -6,-2.714l-26,0c-3.717,0 -6.822,2.56 -7.717,6l-0.283,0c-4.785,0 -8,3.215 -8,8l0,48c0,4.411 3.588,8 8,8l32,0c0.268,0.072 0.887,0.646 1.352,1.031c1.514,1.252 3.584,2.969 6.648,2.969c3.064,0 5.135,-1.717 6.648,-2.969c0.465,-0.385 1.166,-0.967 1.352,-1.031l32,0c4.412,0 8,-3.589 8,-8l0,-48c0,-4.785 -3.215,-8 -8,-8Zm-34,-2l26,0c2.205,0 4,1.794 4,4l0,46c0,2.206 -1.795,4 -4,4l-26,0c-1.465,0 -2.816,0.433 -4,1.124l0,-51.124c0,-2.206 1.795,-4 4,-4Zm-38,0l26,0c2.205,0 4,1.794 4,4l0,51.124c-1.184,-0.691 -2.535,-1.124 -4,-1.124l-26,0c-2.205,0 -4,-1.794 -4,-4l0,-45.99c0,-0.004 0.002,-0.006 0.002,-0.01c0,-0.002 -0.002,-0.004 -0.002,-0.007c0.004,-2.203 1.797,-3.993 4,-3.993Zm76,58c0,2.206 -1.795,4 -4,4l-32,0c-1.549,0 -2.746,0.991 -3.902,1.95c-1.217,1.008 -2.475,2.05 -4.098,2.05c-1.623,0 -2.881,-1.042 -4.098,-2.05c-1.156,-0.959 -2.354,-1.95 -3.902,-1.95l-32,0c-2.205,0 -4,-1.794 -4,-4l0,-48c0,-1.203 0.391,-4 4,-4l0,44c0,4.411 3.588,8 8,8l26,0c2.205,0 4,1.794 4,4c0,1.104 0.895,2 2,2c1.105,0 2,-0.896 2,-2c0,-2.206 1.795,-4 4,-4l26,0c4.412,0 8,-3.589 8,-8l0,-44c3.609,0 4,2.797 4,4l0,48Z" style="fill:#9dffd5;fill-rule:nonzero;"/></g></g></svg>